<?xml version="1.0" standalone="no"?>
<!DOCTYPE svg PUBLIC "-//W3C//DTD SVG 20010904//EN"
 "http://www.w3.org/TR/2001/REC-SVG-20010904/DTD/svg10.dtd">
<svg version="1.0" xmlns="http://www.w3.org/2000/svg"
 width="180.000000pt" height="180.000000pt" viewBox="0 0 180.000000 180.000000"
 preserveAspectRatio="xMidYMid meet">
<metadata>
Created by potrace 1.14, written by Peter Selinger 2001-2017
</metadata>
<g transform="translate(0.000000,180.000000) scale(0.100000,-0.100000)"
fill="#000000" stroke="none">
<path d="M819 1716 c-1 -12 -2 -77 -3 -145 l-1 -124 -95 -2 c-175 -5 -311 -79
-370 -200 -21 -45 -34 -105 -23 -106 5 0 32 -1 61 -2 44 -2 52 1 52 16 0 51
52 121 114 153 64 35 173 53 234 39 l28 -6 -1 -172 0 -172 -86 -7 c-160 -12
-270 -51 -349 -123 l-45 -41 -138 0 c-115 1 -137 -1 -138 -14 -1 -8 -2 -24 -3
-35 0 -11 2 -35 5 -52 4 -18 4 -33 0 -33 -4 0 -6 -17 -5 -37 1 -21 3 -51 3
-66 1 -28 2 -29 54 -27 28 2 84 2 123 1 66 -1 72 -3 78 -24 7 -31 71 -104 116
-132 66 -42 142 -58 244 -52 50 3 103 9 117 12 l26 7 -2 -71 c-1 -58 1 -71 14
-72 9 0 37 -1 64 -2 26 -2 48 2 48 8 1 5 2 54 3 107 1 93 2 98 30 127 17 17
33 31 36 31 4 0 10 -25 14 -56 5 -42 15 -66 39 -96 82 -102 320 -228 527 -277
167 -40 220 4 136 114 -13 16 -24 34 -24 38 0 5 -27 38 -59 75 -81 93 -217
252 -352 411 -25 30 -62 73 -81 94 l-34 39 44 41 c25 23 113 105 195 183 83
78 170 160 194 183 34 32 39 41 25 42 -11 0 -47 1 -80 2 l-62 1 -108 -101
c-60 -55 -136 -126 -169 -157 -33 -30 -63 -56 -66 -56 -4 0 -9 48 -11 108 -6
154 -45 230 -153 301 l-40 26 0 145 c0 80 -1 153 -3 162 -3 13 -16 16 -63 16
-53 -1 -59 -3 -60 -22z m177 -521 c15 -41 26 -165 16 -192 -2 -7 -18 -13 -36
-13 l-31 0 -1 140 c0 132 1 138 18 123 9 -8 25 -35 34 -58z m-182 -492 c-1
-103 -2 -195 -3 -204 -2 -23 -104 -43 -180 -36 -61 6 -116 29 -160 67 -13 11
-21 23 -19 26 3 3 53 5 112 6 l106 0 0 132 0 131 -80 0 c-44 0 -80 1 -80 2 0
18 163 59 244 62 l61 2 -1 -188z m198 162 c-4 -19 -49 -75 -62 -75 -3 0 -6 23
-6 50 l0 51 36 -3 c29 -2 34 -7 32 -23z m-885 -171 c-3 -3 -12 -4 -19 -1 -8 3
-5 6 6 6 11 1 17 -2 13 -5z m400 0 c-3 -3 -12 -4 -19 -1 -8 3 -5 6 6 6 11 1
17 -2 13 -5z m40 0 c-3 -3 -12 -4 -19 -1 -8 3 -5 6 6 6 11 1 17 -2 13 -5z m40
0 c-3 -3 -12 -4 -19 -1 -8 3 -5 6 6 6 11 1 17 -2 13 -5z m40 0 c-3 -3 -12 -4
-19 -1 -8 3 -5 6 6 6 11 1 17 -2 13 -5z m350 -57 c-14 -24 -32 -49 -40 -56
-12 -10 -14 -6 -13 20 1 23 11 40 36 60 18 16 36 27 38 24 2 -2 -7 -24 -21
-48z m348 -182 c93 -110 183 -214 202 -231 39 -37 41 -49 11 -65 -51 -27 -227
45 -322 132 -49 45 -55 55 -70 122 -10 39 -20 119 -23 177 -6 126 -31 142 202
-135z"/>
</g>
</svg>
