<svg id="Layer_1" data-name="Layer 1" xmlns="http://www.w3.org/2000/svg" viewBox="0 0 1215 152"><defs><style>.cls-1{font-size:200px;font-family:RobotoMono-Light, Roboto Mono;font-weight:300;}.cls-2,.cls-3{fill:none;stroke-miterlimit:10;stroke-width:8px;}.cls-2{stroke:#fff;}.cls-3{stroke:#000;}</style></defs><text class="cls-1" transform="translate(21.88 150.32)">access kit</text><line class="cls-2" x1="136.97" y1="105.32" x2="264.98" y2="105.32"/><line class="cls-2" x1="-0.12" y1="105.32" x2="32.18" y2="105.32"/><line class="cls-3" x1="136.97" y1="97.32" x2="264.98" y2="97.32"/><line class="cls-3" x1="-0.06" y1="97.32" x2="32.18" y2="97.32"/><line class="cls-2" x1="136.97" y1="89.32" x2="264.98" y2="89.32"/><line class="cls-2" x1="-0.12" y1="89.32" x2="32.18" y2="89.32"/><line class="cls-2" x1="301.35" y1="105.08" x2="383.6" y2="105.08"/><line class="cls-3" x1="301.35" y1="97.08" x2="383.6" y2="97.08"/><line class="cls-2" x1="301.35" y1="89.08" x2="383.6" y2="89.08"/><line class="cls-2" x1="504.44" y1="105.2" x2="646.6" y2="105.2"/><line class="cls-3" x1="504.44" y1="97.2" x2="646.6" y2="97.2"/><line class="cls-2" x1="504.44" y1="89.2" x2="646.6" y2="89.2"/><line class="cls-2" x1="733.85" y1="104.65" x2="867.6" y2="104.65"/><line class="cls-3" x1="733.85" y1="96.65" x2="867.6" y2="96.65"/><line class="cls-2" x1="733.85" y1="88.65" x2="867.6" y2="88.65"/><line class="cls-2" x1="947.79" y1="105.04" x2="1136.6" y2="105.04"/><line class="cls-3" x1="947.79" y1="97.04" x2="1136.6" y2="97.04"/><line class="cls-2" x1="947.79" y1="89.04" x2="1136.6" y2="89.04"/><line class="cls-2" x1="1172.51" y1="104.99" x2="1214.6" y2="104.99"/><line class="cls-3" x1="1172.51" y1="96.99" x2="1214.6" y2="96.99"/><line class="cls-2" x1="1172.51" y1="88.99" x2="1214.6" y2="88.99"/></svg>