<svg id="Layer_1" data-name="Layer 1" xmlns="http://www.w3.org/2000/svg" viewBox="0 0 180 175"><defs><style>.cls-1{stroke:#fff;}.cls-1,.cls-3{stroke-miterlimit:10;}.cls-2{fill:none;}.cls-3{stroke:#000;}</style></defs><polygon class="cls-1" points="6.2 106.95 21.2 106.95 31.41 106.95 66.71 106.95 66.71 95.13 36.96 95.13 24.46 95.13 6.2 95.13 6.2 106.95"/><path class="cls-2" d="M80.64,87.42A91.52,91.52,0,0,0,65.8,88.59a45.11,45.11,0,0,0-12.6,3.86,23.24,23.24,0,0,0-8.74,7.18,20.47,20.47,0,0,0-1.32,19.82,20,20,0,0,0,5.28,6.5,23.64,23.64,0,0,0,7.81,4.1,32.11,32.11,0,0,0,9.67,1.41A41.17,41.17,0,0,0,77.67,130a43.52,43.52,0,0,0,4.39-1.49V87.42Z"/><path class="cls-2" d="M101.93,66.42a24.14,24.14,0,0,0-2.34-10.49,22.18,22.18,0,0,0-5.71-7.27V78.44h8.05Z"/><polygon class="cls-2" points="101.93 92.42 101.93 87.42 93.88 87.42 93.88 100.35 101.93 92.42"/><path class="cls-2" d="M93.88,121.32c.83-.74,1.63-1.5,2.39-2.31a30.27,30.27,0,0,0,5.66-8.44v-4l-8.05,7.21Z"/><path d="M73.22,32.24a51.86,51.86,0,0,0-15.77,2.35,43.52,43.52,0,0,0-12.94,6.49,32.43,32.43,0,0,0-8.84,9.82,26.67,26.67,0,0,0-3.56,12.4l11.72.1a18.15,18.15,0,0,1,2.63-8.94,22.39,22.39,0,0,1,6.4-6.69,30.91,30.91,0,0,1,9.08-4.2,39.38,39.38,0,0,1,10.79-1.46,42.16,42.16,0,0,1,9.33,1V32.89A60.37,60.37,0,0,0,73.22,32.24Z"/><polygon class="cls-1" points="117.12 92.73 164.29 48.2 149.35 48.2 113.65 81.29 106.48 87.94 101.93 92.42 93.88 100.35 93.88 87.42 82.06 87.42 82.06 128.51 82.06 138.66 82.06 153.86 93.88 153.86 93.88 132.29 93.88 121.32 93.88 113.82 101.93 106.61 108.82 100.44 113.65 106.14 154.13 153.86 169.17 153.86 117.12 92.73"/><path class="cls-1" d="M116.87,138.69a103.61,103.61,0,0,1-2.29-10.25,62.32,62.32,0,0,1-.93-10.65V106.14l-4.83-5.7-6.89,6.17v4A30.27,30.27,0,0,1,96.27,119c-.76.81-1.56,1.57-2.39,2.31v11c.37-.27.75-.54,1.12-.83a43.84,43.84,0,0,0,7-6.83c.13,2.73.39,5.42.78,8.05a42.89,42.89,0,0,0,1.66,7.18H117Z"/><path class="cls-1" d="M53.2,92.45a45.11,45.11,0,0,1,12.6-3.86,91.52,91.52,0,0,1,14.84-1.17h21.29v5l4.55-4.48,7.17-6.65V66.62a34.45,34.45,0,0,0-3.27-15,30.94,30.94,0,0,0-8.59-10.74,35.15,35.15,0,0,0-7.91-4.69V48.66a22.18,22.18,0,0,1,5.71,7.27,24.14,24.14,0,0,1,2.34,10.49v12H79.08a93.58,93.58,0,0,0-18.85,1.85A52.92,52.92,0,0,0,44.41,86.1,30.84,30.84,0,0,0,33.57,96.41q-4,6.34-4,15.42a27.44,27.44,0,0,0,10.11,21.78,34.43,34.43,0,0,0,11.13,6.06,43.18,43.18,0,0,0,13.82,2.15,48.46,48.46,0,0,0,11.42-1.32,54.68,54.68,0,0,0,6-1.84V128.51A43.52,43.52,0,0,1,77.67,130a41.17,41.17,0,0,1-11.77,1.46,32.11,32.11,0,0,1-9.67-1.41,23.64,23.64,0,0,1-7.81-4.1,20,20,0,0,1-5.28-6.5,20.47,20.47,0,0,1,1.32-19.82A23.24,23.24,0,0,1,53.2,92.45Z"/><polygon class="cls-1" points="82.06 3.86 82.06 32.87 82.06 43.08 82.06 78.38 93.88 78.38 93.88 48.63 93.88 36.13 93.88 3.86 82.06 3.86"/><polygon class="cls-1" points="6.2 120.27 21.2 120.27 31.41 120.27 66.71 120.27 66.71 108.46 36.96 108.46 24.46 108.46 6.2 108.46 6.2 120.27"/><path class="cls-3" d="M115.5,137.5c5.4,20,57,36,39,15h12c40.05,40.05-56,6-61.4-14Z"/></svg>