<svg id="Layer_1" data-name="Layer 1" xmlns="http://www.w3.org/2000/svg" viewBox="0 0 1215 152"><defs><style>.cls-1,.cls-2{fill:none;stroke-miterlimit:10;stroke-width:8px;}.cls-1{stroke:#fff;}.cls-2{stroke:#000;}</style></defs><path d="M113.38,150.32a41.93,41.93,0,0,1-1.66-7.18c-.39-2.64-.65-5.32-.78-8.06a43.89,43.89,0,0,1-7,6.84,49.07,49.07,0,0,1-8.74,5.42A50.5,50.5,0,0,1,85,151a48.52,48.52,0,0,1-11.42,1.32,43.18,43.18,0,0,1-13.82-2.15,34.66,34.66,0,0,1-11.14-6.05,27.43,27.43,0,0,1-10.1-21.78q0-9.09,4-15.43a30.73,30.73,0,0,1,10.84-10.3,52.38,52.38,0,0,1,15.82-5.81A92.78,92.78,0,0,1,88,88.89h22.85v-12a24.51,24.51,0,0,0-2.34-10.5,22.23,22.23,0,0,0-6.11-7.62,26.46,26.46,0,0,0-9.18-4.63,40.61,40.61,0,0,0-11.57-1.57A39,39,0,0,0,70.85,54a30.18,30.18,0,0,0-9.08,4.2,22.28,22.28,0,0,0-6.4,6.69,18,18,0,0,0-2.64,8.93L41,73.75a26.7,26.7,0,0,1,3.56-12.4,32.52,32.52,0,0,1,8.84-9.81A43.54,43.54,0,0,1,66.36,45,51.81,51.81,0,0,1,82.13,42.7,56.22,56.22,0,0,1,97.9,44.85a37,37,0,0,1,12.79,6.44A31,31,0,0,1,119.29,62a34.69,34.69,0,0,1,3.27,15v51.18a62.29,62.29,0,0,0,.93,10.64,100.84,100.84,0,0,0,2.29,10.25l.1,1.18Zm-38.58-8.4a41.08,41.08,0,0,0,11.77-1.47,42.43,42.43,0,0,0,10.31-4.34,37.92,37.92,0,0,0,8.3-6.64,30.76,30.76,0,0,0,5.66-8.45V97.88H89.55a91.52,91.52,0,0,0-14.84,1.17,44.9,44.9,0,0,0-12.6,3.85,23.35,23.35,0,0,0-8.74,7.18,20.49,20.49,0,0,0-1.32,19.83,20,20,0,0,0,5.27,6.49,23.5,23.5,0,0,0,7.82,4.1A31.73,31.73,0,0,0,74.8,141.92Z"/><path d="M203.61,142.41a36.26,36.26,0,0,0,11.18-1.71,30.15,30.15,0,0,0,9.43-4.93,26.56,26.56,0,0,0,6.69-7.77,23.84,23.84,0,0,0,3-10.3h11.23a31.72,31.72,0,0,1-3.91,13.87A37,37,0,0,1,232,142.5a43.26,43.26,0,0,1-13,7.18,45.82,45.82,0,0,1-15.43,2.59,44,44,0,0,1-20.21-4.39,42.36,42.36,0,0,1-14.31-11.72,51.23,51.23,0,0,1-8.59-16.85,67.93,67.93,0,0,1-2.88-19.77V95.43a67.93,67.93,0,0,1,2.88-19.77,51.23,51.23,0,0,1,8.59-16.85A42.36,42.36,0,0,1,183.4,47.09a43.61,43.61,0,0,1,20.12-4.39,46.38,46.38,0,0,1,16.26,2.78,39.64,39.64,0,0,1,13,7.81,37.35,37.35,0,0,1,8.74,11.92,39.66,39.66,0,0,1,3.62,15.09H233.89a28.51,28.51,0,0,0-2.74-11,29.13,29.13,0,0,0-6.44-8.79,28.65,28.65,0,0,0-9.43-5.76,32.88,32.88,0,0,0-11.76-2.05,30.09,30.09,0,0,0-26.27,13.48,42.34,42.34,0,0,0-6,13.72,64.31,64.31,0,0,0-1.9,15.57v4.11a65.35,65.35,0,0,0,1.9,15.72,41.87,41.87,0,0,0,6,13.72,31.69,31.69,0,0,0,10.59,9.72Q194.33,142.4,203.61,142.41Z"/><path d="M323.63,142.41a36.26,36.26,0,0,0,11.18-1.71,30.15,30.15,0,0,0,9.43-4.93,26.56,26.56,0,0,0,6.69-7.77,23.84,23.84,0,0,0,3-10.3h11.23a31.72,31.72,0,0,1-3.91,13.87,37,37,0,0,1-9.18,10.93,43.26,43.26,0,0,1-13,7.18,45.82,45.82,0,0,1-15.43,2.59,44,44,0,0,1-20.21-4.39,42.36,42.36,0,0,1-14.31-11.72,51.23,51.23,0,0,1-8.59-16.85,67.93,67.93,0,0,1-2.88-19.77V95.43a67.93,67.93,0,0,1,2.88-19.77,51.23,51.23,0,0,1,8.59-16.85,42.36,42.36,0,0,1,14.31-11.72,43.61,43.61,0,0,1,20.12-4.39,46.32,46.32,0,0,1,16.25,2.78,39.59,39.59,0,0,1,13,7.81,37.35,37.35,0,0,1,8.74,11.92,39.66,39.66,0,0,1,3.62,15.09H353.91a28.51,28.51,0,0,0-2.74-11,29.13,29.13,0,0,0-6.44-8.79,28.65,28.65,0,0,0-9.43-5.76,32.88,32.88,0,0,0-11.76-2.05,30.09,30.09,0,0,0-26.27,13.48,42.34,42.34,0,0,0-6,13.72,64.31,64.31,0,0,0-1.9,15.57v4.11a65.35,65.35,0,0,0,1.9,15.72,41.87,41.87,0,0,0,6,13.72,31.69,31.69,0,0,0,10.59,9.72Q314.36,142.4,323.63,142.41Z"/><path d="M445.9,152.27a48.41,48.41,0,0,1-20.12-4.1A47.73,47.73,0,0,1,410.21,137a50,50,0,0,1-10.06-16.46,57.78,57.78,0,0,1-3.67-20.07v-4.2a61.25,61.25,0,0,1,3.76-21.09,54.63,54.63,0,0,1,10-17A46.92,46.92,0,0,1,425.2,46.85a41.8,41.8,0,0,1,18.45-4.15,43.36,43.36,0,0,1,18.65,3.81,39.23,39.23,0,0,1,13.63,10.4,45.92,45.92,0,0,1,8.4,15.38,62,62,0,0,1,3,18.85v7.13H408.2v2.24A47.93,47.93,0,0,0,411,116.38a41.86,41.86,0,0,0,7.71,13.33,37.73,37.73,0,0,0,12,9.23,34.89,34.89,0,0,0,15.63,3.47,40.1,40.1,0,0,0,17.67-3.62,37,37,0,0,0,13.48-10.74l7.42,5.57a43.24,43.24,0,0,1-6.93,7.57,41.86,41.86,0,0,1-8.94,5.9,49.44,49.44,0,0,1-10.79,3.81A54.54,54.54,0,0,1,445.9,152.27Zm-2.25-99.61a31.46,31.46,0,0,0-13.08,2.69,32.4,32.4,0,0,0-10.45,7.47A40.67,40.67,0,0,0,412.7,74.1a51.58,51.58,0,0,0-4,14.2h66.9V87a41.53,41.53,0,0,0-2.4-12.75,34.93,34.93,0,0,0-6.25-11A31,31,0,0,0,457,55.59,29.55,29.55,0,0,0,443.65,52.66Z"/><path d="M594.53,123.46a14.82,14.82,0,0,0-2.44-8.5,21.44,21.44,0,0,0-6.69-6.2,44.74,44.74,0,0,0-9.81-4.34,117,117,0,0,0-11.82-3q-7.62-1.56-14.75-3.76A55,55,0,0,1,536.33,92a28.55,28.55,0,0,1-8.89-8.35,21.31,21.31,0,0,1-3.32-12.16,22.24,22.24,0,0,1,3.42-12.21,30.58,30.58,0,0,1,9-9.08,42.61,42.61,0,0,1,12.7-5.62,56.45,56.45,0,0,1,14.65-1.9,59.11,59.11,0,0,1,16.06,2.1A41.31,41.31,0,0,1,593,51,30.94,30.94,0,0,1,602,60.86a29,29,0,0,1,3.62,13.38H593.85a18.14,18.14,0,0,0-2.74-9.13,22.12,22.12,0,0,0-6.73-6.79,33.63,33.63,0,0,0-9.53-4.19,41.07,41.07,0,0,0-11-1.47,47.75,47.75,0,0,0-10.31,1.12,31.51,31.51,0,0,0-9,3.42A19.42,19.42,0,0,0,538.23,63a14,14,0,0,0-2.39,8.16,13.58,13.58,0,0,0,2.29,8.35,19.5,19.5,0,0,0,6.5,5.66,42.88,42.88,0,0,0,9.62,3.81q5.52,1.52,11.77,2.78a139.68,139.68,0,0,1,15.28,4.06,56.38,56.38,0,0,1,12.84,6,27.89,27.89,0,0,1,8.79,8.74,23,23,0,0,1,3.22,12.41,23.33,23.33,0,0,1-3.56,12.93,30,30,0,0,1-9.38,9.18,43.82,43.82,0,0,1-13.28,5.47,64.93,64.93,0,0,1-15.38,1.81,63.42,63.42,0,0,1-16.75-2.15,46.41,46.41,0,0,1-13.86-6.2,32.3,32.3,0,0,1-9.62-9.91,26.94,26.94,0,0,1-3.91-13.28h11.72a20,20,0,0,0,3.76,10.45,23.73,23.73,0,0,0,7.81,6.69,34.61,34.61,0,0,0,10.11,3.51,58.51,58.51,0,0,0,10.74,1,51.49,51.49,0,0,0,10.69-1.13,35.05,35.05,0,0,0,9.57-3.41,21.08,21.08,0,0,0,6.94-5.86A14.27,14.27,0,0,0,594.53,123.46Z"/><path d="M714.55,123.46a14.82,14.82,0,0,0-2.44-8.5,21.44,21.44,0,0,0-6.69-6.2,44.74,44.74,0,0,0-9.81-4.34,117.71,117.71,0,0,0-11.82-3q-7.62-1.56-14.75-3.76A55,55,0,0,1,656.35,92a28.55,28.55,0,0,1-8.89-8.35,21.31,21.31,0,0,1-3.32-12.16,22.24,22.24,0,0,1,3.42-12.21,30.58,30.58,0,0,1,9-9.08,42.61,42.61,0,0,1,12.7-5.62,56.45,56.45,0,0,1,14.65-1.9A59.11,59.11,0,0,1,700,44.8,41.31,41.31,0,0,1,713,51,30.94,30.94,0,0,1,722,60.86a29,29,0,0,1,3.62,13.38H713.87a18.14,18.14,0,0,0-2.74-9.13,22,22,0,0,0-6.74-6.79,33.57,33.57,0,0,0-9.52-4.19,41.07,41.07,0,0,0-11-1.47,47.75,47.75,0,0,0-10.31,1.12,31.51,31.51,0,0,0-9,3.42A19.42,19.42,0,0,0,658.25,63a14,14,0,0,0-2.39,8.16,13.58,13.58,0,0,0,2.29,8.35,19.5,19.5,0,0,0,6.5,5.66,42.88,42.88,0,0,0,9.62,3.81q5.52,1.52,11.77,2.78a139.68,139.68,0,0,1,15.28,4.06,56.38,56.38,0,0,1,12.84,6,27.89,27.89,0,0,1,8.79,8.74,23,23,0,0,1,3.22,12.41,23.33,23.33,0,0,1-3.56,12.93,30,30,0,0,1-9.38,9.18A43.82,43.82,0,0,1,700,150.46a64.93,64.93,0,0,1-15.38,1.81,63.42,63.42,0,0,1-16.75-2.15,46.41,46.41,0,0,1-13.86-6.2,32.3,32.3,0,0,1-9.62-9.91,26.84,26.84,0,0,1-3.91-13.28h11.72a20,20,0,0,0,3.76,10.45,23.73,23.73,0,0,0,7.81,6.69,34.61,34.61,0,0,0,10.11,3.51,58.43,58.43,0,0,0,10.74,1,51.57,51.57,0,0,0,10.69-1.13,35.05,35.05,0,0,0,9.57-3.41,21.08,21.08,0,0,0,6.94-5.86A14.27,14.27,0,0,0,714.55,123.46Z"/><path d="M909.86,96.9l-14.94,13.38v40H883.11V.32h11.81V96.8l12.6-12.4,42.87-39.75h14.94L918.16,89.18l52.05,61.14h-15Z"/><path d="M1003.61,44.65h49V140h35.93v10.36h-85V140h37.31V55.1h-37.31Zm33.89-28.9a9.84,9.84,0,0,1,2-6.25q2.06-2.64,6.84-2.64t6.78,2.64a9.71,9.71,0,0,1,2.1,6.25,9.22,9.22,0,0,1-2.1,6q-2.1,2.59-6.78,2.59t-6.84-2.59A9.35,9.35,0,0,1,1037.5,15.75Z"/><path d="M1159.86,17.6V44.65H1199v9.57h-39.16v66.51a26.12,26.12,0,0,0,1.91,10.2,17.26,17.26,0,0,0,4.88,6.54,18.87,18.87,0,0,0,7.23,3.57,35.72,35.72,0,0,0,9,1.07,75,75,0,0,0,10-.68q5.13-.68,8.74-1.37l1.76,8.89a44.31,44.31,0,0,1-10.26,2.49,90.86,90.86,0,0,1-12.3.83,46.92,46.92,0,0,1-13-1.71,27.23,27.23,0,0,1-10.35-5.47,25.74,25.74,0,0,1-6.93-9.76,38.71,38.71,0,0,1-2.64-14.7V54.22h-29.4V44.65H1148v-27Z"/><line class="cls-1" x1="136.97" y1="105.32" x2="264.98" y2="105.32"/><line class="cls-1" x1="-0.12" y1="105.32" x2="32.18" y2="105.32"/><line class="cls-2" x1="136.97" y1="97.32" x2="264.98" y2="97.32"/><line class="cls-2" x1="-0.06" y1="97.32" x2="32.18" y2="97.32"/><line class="cls-1" x1="136.97" y1="89.32" x2="264.98" y2="89.32"/><line class="cls-1" x1="-0.12" y1="89.32" x2="32.18" y2="89.32"/><line class="cls-1" x1="301.35" y1="105.08" x2="383.6" y2="105.08"/><line class="cls-2" x1="301.35" y1="97.08" x2="383.6" y2="97.08"/><line class="cls-1" x1="301.35" y1="89.08" x2="383.6" y2="89.08"/><line class="cls-1" x1="504.44" y1="105.2" x2="646.6" y2="105.2"/><line class="cls-2" x1="504.44" y1="97.2" x2="646.6" y2="97.2"/><line class="cls-1" x1="504.44" y1="89.2" x2="646.6" y2="89.2"/><line class="cls-1" x1="733.85" y1="104.65" x2="867.6" y2="104.65"/><line class="cls-2" x1="733.85" y1="96.65" x2="867.6" y2="96.65"/><line class="cls-1" x1="733.85" y1="88.65" x2="867.6" y2="88.65"/><line class="cls-1" x1="947.79" y1="105.04" x2="1136.6" y2="105.04"/><line class="cls-2" x1="947.79" y1="97.04" x2="1136.6" y2="97.04"/><line class="cls-1" x1="947.79" y1="89.04" x2="1136.6" y2="89.04"/><line class="cls-1" x1="1172.51" y1="104.99" x2="1214.6" y2="104.99"/><line class="cls-2" x1="1172.51" y1="96.99" x2="1214.6" y2="96.99"/><line class="cls-1" x1="1172.51" y1="88.99" x2="1214.6" y2="88.99"/></svg>